<svg xmlns="http://www.w3.org/2000/svg" viewBox="0 0 360.36 54.12"><defs><style>.cls-1{fill:#669ed2;stroke:#669ed2;stroke-miterlimit:2;stroke-width:3px;}</style></defs><g id="Layer_2" data-name="Layer 2"><g id="svg310246"><g id="logo-group"><g id="logo-center"><g id="title"><path id="path310255" class="cls-1" d="M42.54,1.86H38.87V45.64L4.6,1.86H1.5v50.4H5.17V8.48L39.52,52.26h3Z"/><path id="path310257" class="cls-1" d="M56.4,51.68a2.9,2.9,0,0,0,2.16.87,2.85,2.85,0,0,0,2.08-.87,3.12,3.12,0,0,0,.94-2.23,3,3,0,0,0-.94-2.16,2.88,2.88,0,0,0-2.08-.86,3,3,0,0,0-3,3A3.06,3.06,0,0,0,56.4,51.68Z"/><path id="path310259" class="cls-1" d="M81.07,49.31a26.78,26.78,0,0,0,13.39,3.31,27.15,27.15,0,0,0,13.39-3.31,24.27,24.27,0,0,0,9.36-9.15,25,25,0,0,0,3.46-13.1A25.2,25.2,0,0,0,117.21,14a24.77,24.77,0,0,0-9.36-9.15A27.93,27.93,0,0,0,94.46,1.5,26.82,26.82,0,0,0,81.07,4.88,24.54,24.54,0,0,0,71.64,14a25.1,25.1,0,0,0-3.39,13,24.92,24.92,0,0,0,3.39,13A24.64,24.64,0,0,0,81.07,49.31Zm24.84-3a24.34,24.34,0,0,1-23,0,20.4,20.4,0,0,1-8.06-7.92,21.79,21.79,0,0,1-2.95-11.38,21.48,21.48,0,0,1,2.95-11.3,21,21,0,0,1,8.06-8,24.34,24.34,0,0,1,23,0,21.87,21.87,0,0,1,11,19.3,22.48,22.48,0,0,1-3,11.38A21.35,21.35,0,0,1,105.91,46.36Z"/><path id="path310261" class="cls-1" d="M128.26,51.68a2.9,2.9,0,0,0,2.16.87,2.85,2.85,0,0,0,2.08-.87,3.12,3.12,0,0,0,.94-2.23,3,3,0,0,0-.94-2.16,2.88,2.88,0,0,0-2.08-.86,3,3,0,0,0-3,3A3.06,3.06,0,0,0,128.26,51.68Z"/><path id="path310263" class="cls-1" d="M194,52.26h3.6l-.07-50.4h-3L172,40.81,149.44,1.86h-3.1v50.4h3.6v-43L171,45.56h1.8l21.1-36.43Z"/><path id="path310265" class="cls-1" d="M211.37,51.68a2.9,2.9,0,0,0,2.16.87,2.85,2.85,0,0,0,2.08-.87,3.12,3.12,0,0,0,.94-2.23,3,3,0,0,0-.94-2.16,2.88,2.88,0,0,0-2.08-.86,3,3,0,0,0-3,3A3.06,3.06,0,0,0,211.37,51.68Z"/><path id="path310267" class="cls-1" d="M250.28,1.86H246.6l-23.18,50.4h4l21-46.37,21.1,46.37h4Z"/><path id="path310269" class="cls-1" d="M281.26,51.68a2.9,2.9,0,0,0,2.16.87,2.85,2.85,0,0,0,2.08-.87,3.12,3.12,0,0,0,.94-2.23,3,3,0,0,0-.94-2.16,2.88,2.88,0,0,0-2.08-.86,3,3,0,0,0-3,3A3.06,3.06,0,0,0,281.26,51.68Z"/><path id="path310271" class="cls-1" d="M342.69,14.1a24.82,24.82,0,0,0-9.51-9,29.09,29.09,0,0,0-13.89-3.24h-20V5.17H319A26.31,26.31,0,0,1,331.31,8a20.62,20.62,0,0,1,8.21,7.7,22.87,22.87,0,0,1,2.88,11.38,22.68,22.68,0,0,1-2.88,11.38,20.31,20.31,0,0,1-8.21,7.77A26.28,26.28,0,0,1,319,49H303V27.06h-3.68v25.2h20A29.09,29.09,0,0,0,333.18,49a24.14,24.14,0,0,0,9.51-8.93,25.27,25.27,0,0,0,3.38-13,25.25,25.25,0,0,0-3.38-13Z"/><path id="path310273" class="cls-1" d="M353.68,51.68a3,3,0,0,0,4.25,0,3.15,3.15,0,0,0,.93-2.23,3,3,0,0,0-.93-2.16,3,3,0,0,0-5.12,2.16A3.06,3.06,0,0,0,353.68,51.68Z"/></g></g></g></g></g></svg>